<svg xmlns="http://www.w3.org/2000/svg" width="3072" height="288" viewBox="0 0 3072 288"><defs><linearGradient id="sky" x2="0" y2="1"><stop stop-color="#91b9d5"/><stop offset="1" stop-color="#f0d5b7"/></linearGradient><linearGradient id="lime" x2="1" y2="1"><stop stop-color="#e7d9b8"/><stop offset="1" stop-color="#b7a27e"/></linearGradient><linearGradient id="burg" x2="1" y2="1"><stop stop-color="#8a3940"/><stop offset="1" stop-color="#4e2028"/></linearGradient><linearGradient id="wood" x2="1" y2="1"><stop stop-color="#5a4439"/><stop offset="1" stop-color="#2f2624"/></linearGradient><filter id="sh"><feDropShadow dx="0" dy="5" stdDeviation="4" flood-opacity=".32"/></filter><pattern id="ash" width="40" height="22" patternUnits="userSpaceOnUse"><rect width="40" height="22" fill="url(#lime)"/><path d="M0 11h40M20 0v11M10 11v11M30 11v11" stroke="#fff4d4" opacity=".4"/></pattern><symbol id="noble" viewBox="0 0 210 150"><path d="M12 139V49h186v90z" fill="url(#ash)" stroke="#74624f" stroke-width="5"/><path d="m0 53 105-40 105 40-12 17-93-34-93 34z" fill="url(#burg)" stroke="#51252b" stroke-width="5"/><g stroke="#48372f" stroke-width="7"><path d="M45 49v90M165 49v90"/></g><rect x="89" y="90" width="32" height="49" fill="url(#wood)"/><g fill="#8ab3bf" stroke="#665548" stroke-width="4"><rect x="38" y="72" width="28" height="34"/><rect x="144" y="72" width="28" height="34"/></g><path d="M18 127h174" stroke="#caa34f" stroke-width="4"/></symbol><symbol id="role-1" viewBox="0 0 512 288"><rect width="512" height="288" fill="url(#sky)"/><path d="M0 169Q130 119 250 154t262-24v158H0z" fill="#768069"/><path d="M0 225h512v63H0z" fill="#9b917e"/><g filter="url(#sh)"><use href="#noble" x="26" y="98" width="155" height="111"/><use href="#noble" x="172" y="80" width="175" height="125"/><use href="#noble" x="342" y="105" width="145" height="104"/></g><path d="M50 234h412" stroke="#d4c6a9" stroke-width="24"/><circle cx="256" cy="224" r="34" fill="#b7b0a0" stroke="#eee0bd" stroke-width="6"/><circle cx="256" cy="217" r="17" fill="#78a1aa"/><path d="M256 199v-32" stroke="#d6aa4c" stroke-width="6"/><g fill="#5d6048"><circle cx="64" cy="194" r="16"/><circle cx="449" cy="192" r="18"/></g></symbol><symbol id="role-2" viewBox="0 0 512 288"><rect width="512" height="288" fill="url(#sky)"/><path d="M0 230h512v58H0z" fill="#8d8576"/><g filter="url(#sh)"><path d="M70 236V84h372v152z" fill="url(#ash)" stroke="#6d5c4b" stroke-width="6"/><path d="m54 89 202-60 202 60-14 22-188-52-188 52z" fill="url(#burg)" stroke="#51252b" stroke-width="6"/><g stroke="#4a3931" stroke-width="9"><path d="M116 84v152M192 63v173M320 63v173M396 84v152"/></g><rect x="222" y="150" width="68" height="86" rx="4" fill="url(#wood)"/><g fill="#83aebb" stroke="#675547" stroke-width="5"><rect x="123" y="124" width="44" height="62"/><rect x="345" y="124" width="44" height="62"/></g><path d="M96 106h320" stroke="#caa34f" stroke-width="6"/></g><path d="M74 253h364" stroke="#d1c3a7" stroke-width="20"/></symbol><symbol id="role-3" viewBox="0 0 512 288"><rect width="512" height="288" fill="url(#sky)"/><path d="M0 226h512v62H0z" fill="#897f70"/><use href="#noble" x="40" y="83" width="210" height="150"/><use href="#noble" x="280" y="108" width="170" height="121"/><path d="M218 179h105v55H218z" fill="#4d3b33"/><path d="M210 181h121l-15-29h-91z" fill="#6f2730"/><g fill="#b98f50"><circle cx="243" cy="211" r="13"/><circle cx="275" cy="208" r="16"/><circle cx="304" cy="213" r="11"/></g></symbol><symbol id="role-4" viewBox="0 0 512 288"><rect width="512" height="288" fill="#392d2d"/><rect y="42" width="512" height="246" fill="#d2c4ab"/><g stroke="#5b453c" stroke-width="10"><path d="M0 82h512M66 32v256M188 18v270M324 18v270M446 32v256"/></g><path d="M0 239h512v49H0z" fill="#7d6d5d"/><rect x="185" y="95" width="142" height="102" rx="8" fill="#7e9faa" stroke="#6b574a" stroke-width="7"/><path d="M256 95v102M185 146h142" stroke="#eee1c1" stroke-width="4"/><rect x="175" y="200" width="162" height="27" fill="#6a4c3b"/><g fill="#a17d58"><rect x="54" y="175" width="100" height="25"/><rect x="359" y="175" width="100" height="25"/></g><circle cx="256" cy="60" r="20" fill="#d3a347"/></symbol><symbol id="role-5" viewBox="0 0 512 288"><rect width="512" height="288" fill="#302827"/><rect y="38" width="512" height="250" fill="#b39b80"/><g stroke="#4d3b34" stroke-width="10"><path d="M0 79h512M80 31v257M208 14v274M336 14v274M464 31v257"/></g><path d="M0 239h512v49H0z" fill="#66564c"/><rect x="35" y="106" width="140" height="106" fill="#534239"/><g fill="#a87e50"><rect x="50" y="122" width="46" height="30"/><rect x="111" y="122" width="48" height="30"/><rect x="50" y="169" width="109" height="22"/></g><rect x="340" y="104" width="130" height="110" fill="#4c3e39"/><g fill="#d1a858"><circle cx="369" cy="137" r="15"/><circle cx="409" cy="132" r="17"/><circle cx="446" cy="142" r="13"/></g><rect x="191" y="184" width="130" height="28" fill="#6b4d3b"/></symbol><symbol id="role-6" viewBox="0 0 512 288"><rect width="512" height="288" fill="url(#sky)"/><path d="M0 208h512v80H0z" fill="#92897a"/><use href="#noble" x="-25" y="89" width="170" height="122"/><use href="#noble" x="367" y="87" width="172" height="123"/><path d="M92 191h328v79H92z" fill="#b8ae9c"/><circle cx="256" cy="217" r="43" fill="#c6bdac" stroke="#eee2c5" stroke-width="7"/><circle cx="256" cy="209" r="20" fill="#7ca2aa"/><path d="M256 189v-36" stroke="#cda44c" stroke-width="6"/><g fill="#7c2731"><path d="M121 205h67l-10-24h-47zM324 205h68l-10-24h-49z"/></g><g fill="#6a513f"><rect x="128" y="205" width="53" height="37"/><rect x="331" y="205" width="54" height="37"/></g></symbol></defs><use href="#role-1" x="0" width="512" height="288"/><use href="#role-2" x="512" width="512" height="288"/><use href="#role-3" x="1024" width="512" height="288"/><use href="#role-4" x="1536" width="512" height="288"/><use href="#role-5" x="2048" width="512" height="288"/><use href="#role-6" x="2560" width="512" height="288"/></svg>
