<svg xmlns="http://www.w3.org/2000/svg" width="3072" height="288" viewBox="0 0 3072 288"><defs><linearGradient id="sky" x2="0" y2="1"><stop stop-color="#8ec9ee"/><stop offset="1" stop-color="#f7e8d2"/></linearGradient><linearGradient id="stone" x2="1" y2="1"><stop stop-color="#d4d2c7"/><stop offset="1" stop-color="#8b8e91"/></linearGradient><linearGradient id="slate" x2="0" y2="1"><stop stop-color="#46536a"/><stop offset="1" stop-color="#272b37"/></linearGradient><linearGradient id="plum" x2="1" y2="1"><stop stop-color="#765b79"/><stop offset="1" stop-color="#423847"/></linearGradient><filter id="sh"><feDropShadow dx="0" dy="5" stdDeviation="4" flood-opacity=".3"/></filter><pattern id="ashlar" width="36" height="20" patternUnits="userSpaceOnUse"><rect width="36" height="20" fill="url(#stone)"/><path d="M0 10h36M18 0v10M9 10v10M27 10v10" stroke="#f3efe3" stroke-width="1" opacity=".55"/></pattern><symbol id="church" viewBox="0 0 220 210"><path d="M20 198V83h180v115z" fill="url(#ashlar)" stroke="#62666d" stroke-width="6"/><path d="M8 88 110 18l102 70-15 16-87-58-87 58z" fill="url(#slate)" stroke="#303544" stroke-width="6"/><path d="M87 198V42h46v156z" fill="url(#ashlar)" stroke="#62666d" stroke-width="5"/><path d="m81 48 29-42 29 42z" fill="url(#slate)"/><rect x="99" y="82" width="22" height="46" rx="11" fill="#7699b4" stroke="#5b626c" stroke-width="4"/><rect x="44" y="116" width="34" height="52" rx="17" fill="#7194aa" stroke="#666b72" stroke-width="5"/><rect x="142" y="116" width="34" height="52" rx="17" fill="#7194aa" stroke="#666b72" stroke-width="5"/><rect x="92" y="151" width="36" height="47" rx="18" fill="#584943"/></symbol><symbol id="terrace" viewBox="0 0 180 120"><path d="M0 106h180v14H0z" fill="#70737a"/><path d="M8 104V45h164v59z" fill="url(#ashlar)"/><path d="m0 48 90-39 90 39-12 12-78-31-78 31z" fill="url(#slate)"/><g fill="#745d65"><rect x="28" y="63" width="28" height="27"/><rect x="125" y="63" width="28" height="27"/></g><rect x="79" y="63" width="25" height="41" fill="#5d4f48"/></symbol><symbol id="role-1" viewBox="0 0 512 288"><rect width="512" height="288" fill="url(#sky)"/><path d="M0 141Q105 76 190 117t148-43q86-48 174 20v194H0z" fill="#70886b"/><path d="M0 187 512 103v185H0z" fill="#8d8a77"/><g filter="url(#sh)"><use href="#terrace" x="18" y="170" width="140" height="94"/><use href="#terrace" x="145" y="137" width="150" height="99"/><use href="#terrace" x="278" y="105" width="145" height="97"/><use href="#church" x="334" y="35" width="165" height="158"/></g><path d="M0 262h512" stroke="#d9d5c8" stroke-width="18"/><path d="M72 258 102 230l-1-26 38-31-1-27 42-31" fill="none" stroke="#c9c6bd" stroke-width="20"/><path d="M72 258 102 230l-1-26 38-31-1-27 42-31" fill="none" stroke="#6b6e74" stroke-width="3" stroke-dasharray="8 7"/></symbol><symbol id="role-2" viewBox="0 0 512 288"><rect width="512" height="288" fill="url(#sky)"/><path d="M0 228h512v60H0z" fill="#77786e"/><g filter="url(#sh)"><use href="#church" x="122" y="15" width="275" height="263"/></g><path d="M58 252h396" stroke="#c9c6bd" stroke-width="24"/><path d="M92 248v-44h328v44M128 204v-35h256v35" fill="none" stroke="#d9d6cc" stroke-width="18"/><g fill="#66556d"><rect x="66" y="198" width="24" height="52"/><rect x="423" y="198" width="24" height="52"/></g></symbol><symbol id="role-3" viewBox="0 0 512 288"><rect width="512" height="288" fill="url(#sky)"/><path d="M0 218h512v70H0z" fill="#7b7d70"/><use href="#terrace" x="40" y="92" width="205" height="137"/><use href="#terrace" x="270" y="118" width="190" height="127"/><path d="M30 245h450" stroke="#c7c4ba" stroke-width="22"/><path d="M235 183h61v52h-61z" fill="#6a5553"/><path d="M224 184h83l-12-25h-59z" fill="url(#plum)"/><g stroke="#9ea0a2" stroke-width="5"><path d="M250 236v37M270 236v37"/></g></symbol><symbol id="role-4" viewBox="0 0 512 288"><rect width="512" height="288" fill="#292d36"/><path d="M44 288V55L256 8l212 47v233z" fill="#b6b3a9"/><g stroke="#6d7076" stroke-width="12"><path d="M66 50v238M174 26v262M338 26v262M446 50v238"/><path d="M44 98h424"/></g><path d="M0 240h512v48H0z" fill="#65605b"/><g fill="#657e96" stroke="#595f68" stroke-width="5"><path d="M218 78h76v98h-76z"/><path d="M235 78v98M276 78v98M218 128h76"/></g><rect x="175" y="196" width="162" height="25" fill="#6b5749"/><g fill="#88705e"><rect x="78" y="183" width="70" height="18"/><rect x="363" y="183" width="70" height="18"/></g><circle cx="256" cy="50" r="18" fill="#e2b45d"/></symbol><symbol id="role-5" viewBox="0 0 512 288"><rect width="512" height="288" fill="#39333b"/><rect y="40" width="512" height="248" fill="#8e817d"/><g stroke="#5d5055" stroke-width="10"><path d="M0 82h512M75 35v253M190 20v268M325 20v268M440 35v253"/></g><path d="M0 238h512v50H0z" fill="#5d5653"/><rect x="35" y="114" width="125" height="90" fill="#5d4f4e"/><g fill="#8f6f60"><rect x="48" y="128" width="34" height="28"/><rect x="98" y="128" width="46" height="28"/><rect x="48" y="171" width="96" height="18"/></g><rect x="348" y="108" width="120" height="102" fill="#554848"/><g fill="#c3a267"><circle cx="374" cy="139" r="13"/><circle cx="410" cy="137" r="17"/><circle cx="444" cy="147" r="12"/></g><rect x="193" y="184" width="128" height="28" fill="#665447"/><circle cx="256" cy="61" r="17" fill="#e0af54"/></symbol><symbol id="role-6" viewBox="0 0 512 288"><rect width="512" height="288" fill="url(#sky)"/><path d="M0 184 512 111v177H0z" fill="#85857b"/><use href="#terrace" x="10" y="122" width="130" height="87"/><use href="#terrace" x="370" y="85" width="135" height="90"/><path d="M36 265 74 236l-2-28 46-34-2-29 46-32-2-28 50-34" fill="none" stroke="#d5d2c8" stroke-width="24"/><path d="M36 265 74 236l-2-28 46-34-2-29 46-32-2-28 50-34" fill="none" stroke="#666a70" stroke-width="3" stroke-dasharray="8 6"/><path d="M198 206h240v61H198z" fill="#a19d91"/><g fill="#705867"><rect x="224" y="218" width="48" height="30"/><rect x="290" y="218" width="48" height="30"/><rect x="356" y="218" width="48" height="30"/></g></symbol></defs><use href="#role-1" x="0" width="512" height="288"/><use href="#role-2" x="512" width="512" height="288"/><use href="#role-3" x="1024" width="512" height="288"/><use href="#role-4" x="1536" width="512" height="288"/><use href="#role-5" x="2048" width="512" height="288"/><use href="#role-6" x="2560" width="512" height="288"/></svg>
